<?xml version="1.0" encoding="UTF-8" standalone="no"?>
<svg
   xmlns:dc="http://purl.org/dc/elements/1.1/"
   xmlns:cc="http://creativecommons.org/ns#"
   xmlns:rdf="http://www.w3.org/1999/02/22-rdf-syntax-ns#"
   xmlns:svg="http://www.w3.org/2000/svg"
   xmlns="http://www.w3.org/2000/svg"
   version="1.1"
   id="svg4155"
   viewBox="0 0 21.214065 18.912731"
   height="5.3375931mm"
   width="5.9870806mm">
  <defs
     id="defs4157" />
  <metadata
     id="metadata4160">
    <rdf:RDF>
      <cc:Work
         rdf:about="">
        <dc:format>image/svg+xml</dc:format>
        <dc:type
           rdf:resource="http://purl.org/dc/dcmitype/StillImage" />
        <dc:title></dc:title>
      </cc:Work>
    </rdf:RDF>
  </metadata>
  <g
     transform="translate(-477.96439,-462.90584)"
     id="layer1">
    <path
       id="path4152"
       d="m 482.96401,462.90647 c -1.12812,0.0176 -2.29336,0.40606 -3.27149,1.39062 -2.60834,2.6255 -1.69921,7.48412 -0.90234,8.56445 1.60854,2.18073 7.32137,4.84478 8.44531,6.28516 1.0576,1.35536 1.1788,1.96477 1.33594,2.67187 0.15713,-0.7071 0.27833,-1.31651 1.33594,-2.67187 1.12394,-1.44038 6.83677,-4.10443 8.44531,-6.28516 0.79687,-1.08033 1.70599,-5.93895 -0.90235,-8.56445 -0.97812,-0.98456 -2.14337,-1.373 -3.27148,-1.39062 -1.88019,-0.0294 -3.65937,0.9741 -4.31055,1.98046 l -1.29687,2.00391 -1.29688,-2.00391 c -0.65117,-1.00636 -2.43035,-2.00985 -4.31054,-1.98046 z"
       style="fill:#ffffff;fill-opacity:1;fill-rule:evenodd;stroke:none;stroke-width:0.1;stroke-linecap:butt;stroke-linejoin:miter;stroke-miterlimit:4;stroke-dasharray:none;stroke-opacity:1" />
  </g>
</svg>
