<?xml version="1.0" encoding="UTF-8" standalone="no"?>
<svg
   xmlns:dc="http://purl.org/dc/elements/1.1/"
   xmlns:cc="http://creativecommons.org/ns#"
   xmlns:rdf="http://www.w3.org/1999/02/22-rdf-syntax-ns#"
   xmlns:svg="http://www.w3.org/2000/svg"
   xmlns="http://www.w3.org/2000/svg"
   width="5.9870806mm"
   height="5.3375931mm"
   viewBox="0 0 21.214065 18.912731"
   id="svg4155"
   version="1.1">
  <defs
     id="defs4157" />
  <metadata
     id="metadata4160">
    <rdf:RDF>
      <cc:Work
         rdf:about="">
        <dc:format>image/svg+xml</dc:format>
        <dc:type
           rdf:resource="http://purl.org/dc/dcmitype/StillImage" />
        <dc:title></dc:title>
      </cc:Work>
    </rdf:RDF>
  </metadata>
  <g
     style="fill:none;stroke:#000000;stroke-width:1.70000005;stroke-miterlimit:4;stroke-dasharray:none;stroke-opacity:1"
     id="layer1"
     transform="matrix(0.92580979,0,0,0.92580979,-441.71718,-427.55303)">
    <path
       id="path4152"
       d="m 482.95117,461.81641 c -1.31405,0.0205 -2.7241,0.49592 -3.86133,1.64062 -1.52373,1.53376 -1.97553,3.63927 -1.97461,5.46094 4.7e-4,0.91083 0.1143,1.76262 0.28711,2.47851 0.17282,0.7159 0.36907,1.27564 0.70313,1.72852 0.99147,1.34415 2.8545,2.50948 4.63476,3.63477 0.89013,0.56264 1.75586,1.09589 2.45118,1.5664 0.69531,0.47052 1.22872,0.91857 1.37304,1.10352 0.91794,1.17638 0.99374,2.17008 1.17774,2.99804 l 1.6582,0 c 0.18399,-0.82794 0.25979,-1.82166 1.17773,-2.99804 0.14432,-0.18495 0.67773,-0.633 1.37305,-1.10352 0.69532,-0.47051 1.56104,-1.00376 2.45117,-1.5664 1.78026,-1.12529 3.6433,-2.29062 4.63477,-3.63477 0.33405,-0.45288 0.53031,-1.01262 0.70312,-1.72852 0.17282,-0.71589 0.28861,-1.56768 0.28907,-2.47851 9.2e-4,-1.82167 -0.45283,-3.92718 -1.97657,-5.46094 -1.13722,-1.14471 -2.5473,-1.6201 -3.86132,-1.64062 -2.19091,-0.0343 -4.14231,0.98628 -5.03711,2.36914 l -0.58203,0.90039 -0.58399,-0.90039 c -0.89479,-1.38287 -2.84621,-2.40339 -5.03711,-2.36914 z m 0.0254,1.69921 c 1.56948,-0.0245 3.17644,0.96195 3.58399,1.5918 l 2.01172,3.10742 2.00976,-3.10742 c 0.40756,-0.62986 2.01451,-1.61634 3.58399,-1.5918 0.9422,0.0147 1.86262,0.31622 2.68164,1.14063 1.0846,1.09174 1.48124,2.72762 1.48046,4.26172 -3.8e-4,0.76705 -0.1,1.49713 -0.24023,2.07812 -0.14025,0.58099 -0.35554,1.03382 -0.41992,1.1211 -0.61707,0.83658 -2.41455,2.09306 -4.17383,3.20508 -0.87964,0.55601 -1.75388,1.0954 -2.49609,1.59765 -0.74222,0.50225 -1.34407,0.92765 -1.76172,1.46289 -0.34719,0.44493 -0.46775,0.84718 -0.66602,1.27149 -0.19822,-0.42407 -0.3171,-0.82684 -0.66406,-1.27149 -0.41765,-0.53524 -1.01951,-0.96064 -1.76172,-1.46289 -0.74221,-0.50225 -1.61645,-1.04164 -2.49609,-1.59765 -1.75928,-1.11202 -3.55676,-2.3685 -4.17383,-3.20508 -0.0644,-0.0873 -0.27967,-0.54011 -0.41992,-1.1211 -0.14026,-0.58099 -0.23985,-1.31107 -0.24024,-2.07812 -7.7e-4,-1.5341 0.39586,-3.16998 1.48047,-4.26172 0.81903,-0.82442 1.73945,-1.12593 2.68164,-1.14063 z"
       style="color:#000000;font-style:normal;font-variant:normal;font-weight:normal;font-stretch:normal;font-size:medium;line-height:normal;font-family:sans-serif;text-indent:0;text-align:start;text-decoration:none;text-decoration-line:none;text-decoration-style:solid;text-decoration-color:#000000;letter-spacing:normal;word-spacing:normal;text-transform:none;direction:ltr;block-progression:tb;writing-mode:lr-tb;baseline-shift:baseline;text-anchor:start;white-space:normal;clip-rule:nonzero;display:inline;overflow:visible;visibility:visible;opacity:1;isolation:auto;mix-blend-mode:normal;color-interpolation:sRGB;color-interpolation-filters:linearRGB;solid-color:#000000;solid-opacity:1;fill:#ffffff;fill-opacity:1;fill-rule:evenodd;stroke:none;stroke-width:1.70000005;stroke-linecap:butt;stroke-linejoin:miter;stroke-miterlimit:4;stroke-dasharray:none;stroke-dashoffset:0;stroke-opacity:1;color-rendering:auto;image-rendering:auto;shape-rendering:auto;text-rendering:auto;enable-background:accumulate" />
  </g>
</svg>
