<?xml version="1.0" encoding="UTF-8" standalone="no"?>
<svg
   xmlns:dc="http://purl.org/dc/elements/1.1/"
   xmlns:cc="http://creativecommons.org/ns#"
   xmlns:rdf="http://www.w3.org/1999/02/22-rdf-syntax-ns#"
   xmlns:svg="http://www.w3.org/2000/svg"
   xmlns="http://www.w3.org/2000/svg"
   version="1.1"
   id="svg4180"
   viewBox="0 0 19.406249 20.427731"
   height="5.7651596mm"
   width="5.4768748mm">
  <defs
     id="defs4182" />
  <metadata
     id="metadata4185">
    <rdf:RDF>
      <cc:Work
         rdf:about="">
        <dc:format>image/svg+xml</dc:format>
        <dc:type
           rdf:resource="http://purl.org/dc/dcmitype/StillImage" />
        <dc:title></dc:title>
      </cc:Work>
    </rdf:RDF>
  </metadata>
  <g
     transform="translate(-744.58256,-193.57691)"
     id="layer1">
    <path
       id="path4168"
       d="m 754.28571,193.57691 a 4.9777575,4.9777575 0 0 0 -4.97656,4.97656 4.9777575,4.9777575 0 0 0 2.8457,4.49219 l -0.0137,0 c -0.014,-0.15458 -4.06385,1.38527 -5.63281,4.63281 -1.25158,2.59062 -1.92578,6.32617 -1.92578,6.32617 l 19.40625,0 c 0,0 -0.67224,-3.73555 -1.92383,-6.32617 -1.56896,-3.24754 -5.62071,-4.78739 -5.63476,-4.63281 l -0.008,0 a 4.9777575,4.9777575 0 0 0 2.84179,-4.49219 4.9777575,4.9777575 0 0 0 -4.97851,-4.97656 z"
       style="fill:#ffffff;fill-opacity:1;stroke:none;stroke-width:0.05;stroke-miterlimit:4;stroke-dasharray:none;stroke-opacity:1" />
  </g>
</svg>
