<svg height="150" viewBox="0 0 200 150" width="200" xmlns="http://www.w3.org/2000/svg"><g fill="#7d0909" transform="translate(0 -902.36216)"><path d="m72.285156 933.4657h8.398438l10.605468 20v-20h7.128907v29.16015h-8.398438l-10.605469-20v20h-7.128906z"/><path d="m115.89844 945.22351q-2.32422 0-3.55469 1.67969-1.21094 1.66015-1.21094 4.80469 0 3.14453 1.21094 4.82421 1.23047 1.66016 3.55469 1.66016 2.28515 0 3.49609-1.66016 1.21094-1.67968 1.21094-4.82421 0-3.14454-1.21094-4.80469-1.21094-1.67969-3.49609-1.67969zm0-5q5.64453 0 8.80859 3.04688 3.1836 3.04687 3.1836 8.4375 0 5.39062-3.1836 8.4375-3.16406 3.04687-8.80859 3.04687-5.66406 0-8.86719-3.04687-3.18359-3.04688-3.18359-8.4375 0-5.39063 3.18359-8.4375 3.20313-3.04688 8.86719-3.04688z"/><path d="m33.066406 983.4657h7.519531v29.1602h-7.519531z"/><path d="m67.949219 994.38367q1.328125-2.03125 3.144531-3.08594 1.835937-1.07422 4.023437-1.07422 3.769532 0 5.742188 2.32422 1.972656 2.32422 1.972656 6.75781v13.32036h-7.03125v-11.4063q.01953-.2539.01953-.5273.01953-.2735.01953-.78129 0-2.32422-.683594-3.35937-.683594-1.05469-2.207031-1.05469-1.992188 0-3.085938 1.64062-1.074219 1.64063-1.113281 4.74613v10.7422h-7.03125v-11.4063q0-3.63281-.625-4.66796-.625-1.05469-2.226563-1.05469-2.011718 0-3.105468 1.66015-1.09375 1.64063-1.09375 4.707v10.7618h-7.03125v-21.87505h7.03125v3.20313q1.289062-1.85547 2.949218-2.79297 1.679688-.9375 3.691407-.9375 2.265625 0 4.003906 1.09375 1.738281 1.09375 2.636719 3.06641z"/><path d="m99.199219 1002.7821q-2.1875 0-3.300782.7422-1.09375.7422-1.09375 2.1875 0 1.3281.878907 2.0898.898437.7422 2.480468.7422 1.972658 0 3.320318-1.4062 1.34765-1.4258 1.34765-3.5547v-.8008zm10.683591-2.6367v12.4805h-7.05078v-3.2422q-1.40625 1.9922-3.164061 2.9101-1.757813.8985-4.277344.8985-3.398438 0-5.527344-1.9727-2.109375-1.9922-2.109375-5.1562 0-3.8477 2.636719-5.6446 2.65625-1.79685 8.320312-1.79685h4.121093v-.54688q0-1.66015-1.30859-2.42187-1.3086-.78125-4.082034-.78125-2.246094 0-4.179687.44922-1.933594.44922-3.59375 1.34765v-5.33203q2.246093-.54687 4.511718-.82031 2.265625-.29297 4.53125-.29297 5.917973 0 8.535153 2.34375 2.63672 2.32422 2.63672 7.57814z"/><path d="m127.83828 987.12193c-.46642 1.12214-.61825 2.17491-.61328 3.19336.31075.0307.60863.082.90234.14062-.0309-1.22259.11973-2.35055.58594-3.30859l-.875-.0254zm.28906 3.33398c.026 1.02812.17826 2.12258.39453 3.25195l-.875-.0254c-.20924-1.10702-.41626-2.21536-.42187-3.36718-.34029-.0336-.69006-.0527-1.05079-.0527-2.66927 0-4.8763 1.04818-6.62109 3.14453l-4.125 1.44531 1.83789 3.35157c-.21659 1.0044-.33008 2.07891-.33008 3.23041 0 .6473.0443 1.2652.11328 1.8672l-2.30664 3.4102 4.30274 2.0937c.16165.2302.32753.4579.50781.6758 1.74479 2.0964 3.95182 3.1445 6.62109 3.1445.36408 0 .71534-.02 1.0586-.055-.0179-1.1463.1637-2.2528.34765-3.3593l.87305-.045c-.1917 1.1362-.31948 2.2353-.32226 3.2656.28568-.057.55762-.1365.82812-.2188-.1378-.9502-.15558-1.8992-.16992-2.8476l.85156-.1992c.012.946.0571 1.8632.17383 2.7226.12643-.056.26074-.099.38281-.1621 1.15885-.5989 2.22006-1.5364 3.1836-2.8125v1.5039c0 2.1354-.53386 3.7043-1.60157 4.707-1.06771 1.0026-2.74739 1.5039-5.03906 1.5039-1.18489 0-2.36328-.1757-3.53516-.5273-4.61999-1.3609-6.14874 1.9742-3.59375 3.8867 1.28907.4297 2.57162.7487 3.84766.957 1.27604.2083 2.59765.3125 3.96484.3125 4.21875 0 7.4349-.9309 9.64844-2.7929 2.22656-1.8489 3.33985-4.5312 3.33985-8.0469v-19.66794c.43688-1.968.34955-2.80043.008-2.85742-.43963-.0733-1.29921 1.13506-2 2.85742 0 0-2.23546.20405-3.13867.79492-.86417.56535-1.90039 2.44727-1.90039 2.44727-.96354-1.28906-2.02475-2.23307-3.1836-2.83203-.14265-.0737-.29869-.12551-.44726-.18945-.12287.87673-.17323 1.81308-.18555 2.78125l-.85156-.20118c.0146-.96437.0313-1.92826.17578-2.89453-.25004-.0735-.49885-.14866-.76172-.20117zm.76172.20117c.2976.0875.5833.19479.86133.31446.19657-1.40265.58133-2.65009 1.3164-3.60743l-.85156-.20117c-.79302 1.16951-1.15266 2.33367-1.32617 3.49414zm.92578 21.23242c-.27637.1223-.55941.2342-.85547.3242.1706 1.1764.5281 2.3554 1.33203 3.541l.85156-.2011c-.74557-.971-1.13423-2.2369-1.32812-3.6641zm-1.68359.543c-.29201.058-.58958.1079-.89844.1386.016 1.0231.18815 2.0763.68164 3.1934l.875-.045c-.48637-.9458-.6615-2.0667-.6582-3.2871zm.64062-17.13089c1.45833 0 2.59115.53386 3.39844 1.60157.80729 1.06771 1.21094 2.57816 1.21094 4.53122 0 1.9401-.40365 3.444-1.21094 4.5117-.80729 1.0677-1.94011 1.6016-3.39844 1.6016-.57296 0-1.09243-.076-1.56055-.2266a1.5178572 2.4559445 0 0 0 1.50977-2.3535 1.5178534 1.4473817 0 0 1 -1.51367 1.3457 1.5178534 1.4473817 0 0 1 -1.51563-1.3437 1.5178572 2.4559445 0 0 0  .72656 1.9922c-.40766-.2437-.76324-.5605-1.06445-.9571-.78125-1.0417-1.17187-2.565-1.17187-4.5703 0-1.95306.40364-3.46351 1.21093-4.53122.27555-.36443.59154-.66231.94141-.90235a1.5178572 2.4559445 0 0 0 -.64258 1.9043 1.5178534 1.4473817 0 0 1  1.51563-1.34375 1.5178534 1.4473817 0 0 1  1.51367 1.3457 1.5178572 2.4559445 0 0 0 -1.50586-2.35547c.46981-.16521.98811-.25 1.55664-.25zm-.0508 2.8086a1.5178534 1.4473817 0 0 1 -1.51367 1.3457 1.5178534 1.4473817 0 0 1 -1.51563-1.3418 1.5178572 2.4559445 0 0 0  1.51563 2.34959 1.5178572 2.4559445 0 0 0  1.51367-2.35349zm-1.51367 4.29879a1.5178572 2.4559445 0 0 0 -1.51563 2.3536 1.5178534 1.4473817 0 0 1  1.51563-1.3438 1.5178534 1.4473817 0 0 1  1.51367 1.3438 1.5178572 2.4559445 0 0 0 -1.51367-2.3536z"/><path d="m169.00701 1001.6298v1.9921h-16.34765q.2539 2.461 1.77734 3.6915 1.52344 1.2304 4.25781 1.2304 2.20703 0 4.51172-.6445 2.32422-.6641 4.76563-1.9922v5.3906q-2.48047.9375-4.96094 1.4063-2.48047.4883-4.96094.4883-5.9375 0-9.23828-3.0079-3.28125-3.0273-3.28125-8.4765 0-5.35158 3.22266-8.41798 3.24218-3.06641 8.90625-3.06641 5.15625 0 8.24218 3.10547 3.10547 3.10547 3.10547 8.30082zm-7.1875-2.32426q0-1.99219-1.17187-3.20312-1.15235-1.23047-3.02735-1.23047-2.03125 0-3.30078 1.15234-1.26953 1.13281-1.58203 3.28125z"/></g></svg>